<mxfile host="app.diagrams.net" modified="2024-04-22T15:48:24.970Z" agent="Mozilla/5.0 (Windows NT 10.0; Win64; x64) AppleWebKit/537.36 (KHTML, like Gecko) Chrome/123.0.0.0 Safari/537.36" etag="QRsH1y5rPJtU0Kn4y6Sd" version="21.7.5" type="device">
  <diagram name="Strona-1" id="3TqAMhkce1M7nrBBbh5U">
    <mxGraphModel dx="2353" dy="1199" grid="1" gridSize="10" guides="1" tooltips="1" connect="1" arrows="1" fold="1" page="1" pageScale="1" pageWidth="827" pageHeight="1169" math="0" shadow="0">
      <root>
        <mxCell id="0" />
        <mxCell id="1" parent="0" />
        <mxCell id="Uv3hkF370l_UMBoWYebT-1" value="" style="rounded=0;whiteSpace=wrap;html=1;fillColor=#dae8fc;strokeColor=#6c8ebf;" vertex="1" parent="1">
          <mxGeometry x="100" y="160" width="950" height="450" as="geometry" />
        </mxCell>
        <mxCell id="Uv3hkF370l_UMBoWYebT-2" value="Google Cloud" style="text;html=1;align=center;verticalAlign=middle;resizable=0;points=[];autosize=1;strokeColor=none;fillColor=none;fontSize=14;fontStyle=3;fontColor=#0000FF;" vertex="1" parent="1">
          <mxGeometry x="90" y="130" width="120" height="30" as="geometry" />
        </mxCell>
        <mxCell id="Uv3hkF370l_UMBoWYebT-3" value="" style="rounded=1;whiteSpace=wrap;html=1;fillColor=#d5e8d4;strokeColor=#82b366;" vertex="1" parent="1">
          <mxGeometry x="150" y="190" width="580" height="260" as="geometry" />
        </mxCell>
        <mxCell id="Uv3hkF370l_UMBoWYebT-4" value="&lt;font color=&quot;#33ff33&quot; style=&quot;&quot;&gt;main-vpc&amp;nbsp;&lt;br&gt;10.10.10.0/24&lt;br&gt;&lt;/font&gt;" style="text;html=1;align=center;verticalAlign=middle;resizable=0;points=[];autosize=1;strokeColor=none;fillColor=none;fontStyle=3;fontSize=14;" vertex="1" parent="1">
          <mxGeometry x="110" y="150" width="110" height="50" as="geometry" />
        </mxCell>
        <mxCell id="Uv3hkF370l_UMBoWYebT-5" value="" style="ellipse;shape=cloud;whiteSpace=wrap;html=1;" vertex="1" parent="1">
          <mxGeometry x="140" y="180" width="340" height="260" as="geometry" />
        </mxCell>
        <mxCell id="Uv3hkF370l_UMBoWYebT-6" value="&lt;font style=&quot;font-size: 15px;&quot;&gt;&lt;b&gt;subnet-01&lt;/b&gt;&lt;/font&gt;" style="text;html=1;align=center;verticalAlign=middle;resizable=0;points=[];autosize=1;strokeColor=none;fillColor=none;" vertex="1" parent="1">
          <mxGeometry x="175" y="190" width="90" height="30" as="geometry" />
        </mxCell>
        <mxCell id="Uv3hkF370l_UMBoWYebT-7" value="" style="shape=image;verticalLabelPosition=bottom;labelBackgroundColor=default;verticalAlign=top;aspect=fixed;imageAspect=0;image=https://miro.medium.com/v2/resize:fit:513/1*aeXlwnOS3DvVHiMVgBZbpQ.png;" vertex="1" parent="1">
          <mxGeometry x="180" y="250" width="133" height="132.74" as="geometry" />
        </mxCell>
        <mxCell id="Uv3hkF370l_UMBoWYebT-32" style="edgeStyle=orthogonalEdgeStyle;rounded=0;orthogonalLoop=1;jettySize=auto;html=1;exitX=0.5;exitY=0;exitDx=0;exitDy=0;entryX=0.5;entryY=0;entryDx=0;entryDy=0;dashed=1;" edge="1" parent="1" source="Uv3hkF370l_UMBoWYebT-8" target="Uv3hkF370l_UMBoWYebT-31">
          <mxGeometry relative="1" as="geometry">
            <Array as="points">
              <mxPoint x="362" y="40" />
              <mxPoint x="1365" y="40" />
            </Array>
          </mxGeometry>
        </mxCell>
        <mxCell id="Uv3hkF370l_UMBoWYebT-8" value="" style="shape=image;verticalLabelPosition=bottom;labelBackgroundColor=default;verticalAlign=top;aspect=fixed;imageAspect=0;image=https://res.cloudinary.com/talend/image/upload/w_423/q_auto/qlik/partners/tile-image/partner-technology-google-cloud-dataproc_bcaxjt.jpg;" vertex="1" parent="1">
          <mxGeometry x="300" y="258.21000000000004" width="123" height="116.31" as="geometry" />
        </mxCell>
        <mxCell id="Uv3hkF370l_UMBoWYebT-9" value="" style="ellipse;shape=cloud;whiteSpace=wrap;html=1;" vertex="1" parent="1">
          <mxGeometry x="470" y="200" width="250" height="220" as="geometry" />
        </mxCell>
        <mxCell id="Uv3hkF370l_UMBoWYebT-10" value="&lt;font style=&quot;font-size: 15px;&quot;&gt;&lt;b&gt;composer-subnet-01&lt;/b&gt;&lt;/font&gt;" style="text;html=1;align=center;verticalAlign=middle;resizable=0;points=[];autosize=1;strokeColor=none;fillColor=none;" vertex="1" parent="1">
          <mxGeometry x="440" y="200" width="170" height="30" as="geometry" />
        </mxCell>
        <mxCell id="Uv3hkF370l_UMBoWYebT-11" value="" style="shape=image;verticalLabelPosition=bottom;labelBackgroundColor=default;verticalAlign=top;aspect=fixed;imageAspect=0;image=https://www.cloudzone.io/wp-content/uploads/2021/06/google-cloud-composer.jpeg;" vertex="1" parent="1">
          <mxGeometry x="510" y="263.24" width="170" height="106.25" as="geometry" />
        </mxCell>
        <mxCell id="Uv3hkF370l_UMBoWYebT-16" style="edgeStyle=orthogonalEdgeStyle;rounded=0;orthogonalLoop=1;jettySize=auto;html=1;entryX=0.5;entryY=1;entryDx=0;entryDy=0;" edge="1" parent="1" source="Uv3hkF370l_UMBoWYebT-12" target="Uv3hkF370l_UMBoWYebT-13">
          <mxGeometry relative="1" as="geometry" />
        </mxCell>
        <mxCell id="Uv3hkF370l_UMBoWYebT-17" value="OAuth" style="edgeLabel;html=1;align=center;verticalAlign=middle;resizable=0;points=[];" vertex="1" connectable="0" parent="Uv3hkF370l_UMBoWYebT-16">
          <mxGeometry x="-0.0248" y="-5" relative="1" as="geometry">
            <mxPoint as="offset" />
          </mxGeometry>
        </mxCell>
        <mxCell id="Uv3hkF370l_UMBoWYebT-12" value="" style="shape=image;verticalLabelPosition=bottom;labelBackgroundColor=default;verticalAlign=top;aspect=fixed;imageAspect=0;image=https://static-00.iconduck.com/assets.00/terraform-icon-1803x2048-hodrzd3t.png;" vertex="1" parent="1">
          <mxGeometry x="140" y="770" width="150" height="170.45" as="geometry" />
        </mxCell>
        <mxCell id="Uv3hkF370l_UMBoWYebT-13" value="LAB" style="shape=image;verticalLabelPosition=bottom;labelBackgroundColor=default;verticalAlign=top;aspect=fixed;imageAspect=0;image=https://cdn-icons-png.flaticon.com/512/9135/9135394.png;fontStyle=3" vertex="1" parent="1">
          <mxGeometry x="164" y="470" width="102" height="102" as="geometry" />
        </mxCell>
        <mxCell id="Uv3hkF370l_UMBoWYebT-19" style="edgeStyle=orthogonalEdgeStyle;rounded=0;orthogonalLoop=1;jettySize=auto;html=1;entryX=0.5;entryY=1;entryDx=0;entryDy=0;" edge="1" parent="1" source="Uv3hkF370l_UMBoWYebT-18" target="Uv3hkF370l_UMBoWYebT-8">
          <mxGeometry relative="1" as="geometry" />
        </mxCell>
        <mxCell id="Uv3hkF370l_UMBoWYebT-20" style="edgeStyle=orthogonalEdgeStyle;rounded=0;orthogonalLoop=1;jettySize=auto;html=1;entryX=0.5;entryY=1;entryDx=0;entryDy=0;exitX=0.5;exitY=0;exitDx=0;exitDy=0;" edge="1" parent="1" source="Uv3hkF370l_UMBoWYebT-18" target="Uv3hkF370l_UMBoWYebT-11">
          <mxGeometry relative="1" as="geometry" />
        </mxCell>
        <mxCell id="Uv3hkF370l_UMBoWYebT-18" value="DATA" style="shape=image;verticalLabelPosition=bottom;labelBackgroundColor=default;verticalAlign=top;aspect=fixed;imageAspect=0;image=https://cdn-icons-png.flaticon.com/512/9135/9135394.png;fontStyle=3" vertex="1" parent="1">
          <mxGeometry x="389" y="470" width="102" height="102" as="geometry" />
        </mxCell>
        <mxCell id="Uv3hkF370l_UMBoWYebT-23" style="edgeStyle=orthogonalEdgeStyle;rounded=0;orthogonalLoop=1;jettySize=auto;html=1;entryX=0.5;entryY=1;entryDx=0;entryDy=0;" edge="1" parent="1" source="Uv3hkF370l_UMBoWYebT-22" target="Uv3hkF370l_UMBoWYebT-21">
          <mxGeometry relative="1" as="geometry" />
        </mxCell>
        <mxCell id="Uv3hkF370l_UMBoWYebT-22" value="" style="shape=image;verticalLabelPosition=bottom;labelBackgroundColor=default;verticalAlign=top;aspect=fixed;imageAspect=0;image=https://cdn-icons-png.flaticon.com/512/25/25231.png;" vertex="1" parent="1">
          <mxGeometry x="590" y="784.22" width="142" height="142" as="geometry" />
        </mxCell>
        <mxCell id="Uv3hkF370l_UMBoWYebT-21" value="COMPUTE" style="shape=image;verticalLabelPosition=bottom;labelBackgroundColor=default;verticalAlign=top;aspect=fixed;imageAspect=0;image=https://cdn-icons-png.flaticon.com/512/9135/9135394.png;fontStyle=3" vertex="1" parent="1">
          <mxGeometry x="610" y="470" width="102" height="102" as="geometry" />
        </mxCell>
        <mxCell id="Uv3hkF370l_UMBoWYebT-29" style="edgeStyle=orthogonalEdgeStyle;rounded=0;orthogonalLoop=1;jettySize=auto;html=1;exitX=0;exitY=0.5;exitDx=0;exitDy=0;entryX=1;entryY=0.5;entryDx=0;entryDy=0;endArrow=none;endFill=0;startArrow=classic;startFill=1;" edge="1" parent="1" source="Uv3hkF370l_UMBoWYebT-25" target="Uv3hkF370l_UMBoWYebT-11">
          <mxGeometry relative="1" as="geometry" />
        </mxCell>
        <mxCell id="Uv3hkF370l_UMBoWYebT-25" value="Code" style="shape=image;verticalLabelPosition=bottom;labelBackgroundColor=default;verticalAlign=top;aspect=fixed;imageAspect=0;image=https://miro.medium.com/v2/resize:fit:512/1*CHzvR53_W9FR2s1BQW9Bqg.png;" vertex="1" parent="1">
          <mxGeometry x="770" y="200" width="108" height="108" as="geometry" />
        </mxCell>
        <mxCell id="Uv3hkF370l_UMBoWYebT-26" value="Data" style="shape=image;verticalLabelPosition=bottom;labelBackgroundColor=default;verticalAlign=top;aspect=fixed;imageAspect=0;image=https://miro.medium.com/v2/resize:fit:512/1*CHzvR53_W9FR2s1BQW9Bqg.png;" vertex="1" parent="1">
          <mxGeometry x="910" y="200" width="108" height="108" as="geometry" />
        </mxCell>
        <mxCell id="Uv3hkF370l_UMBoWYebT-27" value="Conf" style="shape=image;verticalLabelPosition=bottom;labelBackgroundColor=default;verticalAlign=top;aspect=fixed;imageAspect=0;image=https://miro.medium.com/v2/resize:fit:512/1*CHzvR53_W9FR2s1BQW9Bqg.png;" vertex="1" parent="1">
          <mxGeometry x="770" y="360" width="108" height="108" as="geometry" />
        </mxCell>
        <mxCell id="Uv3hkF370l_UMBoWYebT-30" style="edgeStyle=orthogonalEdgeStyle;rounded=0;orthogonalLoop=1;jettySize=auto;html=1;entryX=1;entryY=0.5;entryDx=0;entryDy=0;startArrow=classic;startFill=1;" edge="1" parent="1" source="Uv3hkF370l_UMBoWYebT-28" target="Uv3hkF370l_UMBoWYebT-12">
          <mxGeometry relative="1" as="geometry">
            <Array as="points">
              <mxPoint x="964" y="980" />
              <mxPoint x="500" y="980" />
              <mxPoint x="500" y="855" />
            </Array>
          </mxGeometry>
        </mxCell>
        <mxCell id="Uv3hkF370l_UMBoWYebT-28" value="State" style="shape=image;verticalLabelPosition=bottom;labelBackgroundColor=default;verticalAlign=top;aspect=fixed;imageAspect=0;image=https://miro.medium.com/v2/resize:fit:512/1*CHzvR53_W9FR2s1BQW9Bqg.png;" vertex="1" parent="1">
          <mxGeometry x="910" y="362" width="108" height="108" as="geometry" />
        </mxCell>
        <mxCell id="Uv3hkF370l_UMBoWYebT-31" value="" style="rounded=0;whiteSpace=wrap;html=1;" vertex="1" parent="1">
          <mxGeometry x="1160" y="160" width="410" height="450" as="geometry" />
        </mxCell>
        <mxCell id="Uv3hkF370l_UMBoWYebT-33" value="&lt;b&gt;&lt;i&gt;&lt;font style=&quot;font-size: 15px;&quot;&gt;Spark Cluster (4VMs)&lt;/font&gt;&lt;/i&gt;&lt;/b&gt;" style="text;html=1;align=center;verticalAlign=middle;resizable=0;points=[];autosize=1;strokeColor=none;fillColor=none;" vertex="1" parent="1">
          <mxGeometry x="1135" y="130" width="170" height="30" as="geometry" />
        </mxCell>
        <mxCell id="Uv3hkF370l_UMBoWYebT-40" style="edgeStyle=orthogonalEdgeStyle;rounded=0;orthogonalLoop=1;jettySize=auto;html=1;entryX=0.5;entryY=1;entryDx=0;entryDy=0;exitX=0;exitY=0.5;exitDx=0;exitDy=0;startArrow=classic;startFill=1;" edge="1" parent="1" source="Uv3hkF370l_UMBoWYebT-34" target="Uv3hkF370l_UMBoWYebT-36">
          <mxGeometry relative="1" as="geometry" />
        </mxCell>
        <mxCell id="Uv3hkF370l_UMBoWYebT-41" style="edgeStyle=orthogonalEdgeStyle;rounded=0;orthogonalLoop=1;jettySize=auto;html=1;entryX=1;entryY=0.5;entryDx=0;entryDy=0;startArrow=classic;startFill=1;" edge="1" parent="1" source="Uv3hkF370l_UMBoWYebT-34" target="Uv3hkF370l_UMBoWYebT-37">
          <mxGeometry relative="1" as="geometry" />
        </mxCell>
        <mxCell id="Uv3hkF370l_UMBoWYebT-34" value="&lt;font size=&quot;1&quot; style=&quot;&quot;&gt;&lt;b style=&quot;font-size: 23px;&quot;&gt;Worker 2&lt;/b&gt;&lt;/font&gt;" style="rounded=1;whiteSpace=wrap;html=1;" vertex="1" parent="1">
          <mxGeometry x="1410" y="491" width="120" height="60" as="geometry" />
        </mxCell>
        <mxCell id="Uv3hkF370l_UMBoWYebT-42" style="edgeStyle=orthogonalEdgeStyle;rounded=0;orthogonalLoop=1;jettySize=auto;html=1;exitX=0.5;exitY=0;exitDx=0;exitDy=0;entryX=0;entryY=0.5;entryDx=0;entryDy=0;startArrow=classic;startFill=1;" edge="1" parent="1" source="Uv3hkF370l_UMBoWYebT-35" target="Uv3hkF370l_UMBoWYebT-37">
          <mxGeometry relative="1" as="geometry" />
        </mxCell>
        <mxCell id="Uv3hkF370l_UMBoWYebT-35" value="&lt;font size=&quot;1&quot; style=&quot;&quot;&gt;&lt;b style=&quot;font-size: 23px;&quot;&gt;Worker 1&lt;/b&gt;&lt;/font&gt;" style="rounded=1;whiteSpace=wrap;html=1;" vertex="1" parent="1">
          <mxGeometry x="1210" y="491" width="120" height="60" as="geometry" />
        </mxCell>
        <mxCell id="Uv3hkF370l_UMBoWYebT-39" style="edgeStyle=orthogonalEdgeStyle;rounded=0;orthogonalLoop=1;jettySize=auto;html=1;exitX=0.5;exitY=1;exitDx=0;exitDy=0;entryX=1;entryY=0.5;entryDx=0;entryDy=0;startArrow=classic;startFill=1;" edge="1" parent="1" source="Uv3hkF370l_UMBoWYebT-36" target="Uv3hkF370l_UMBoWYebT-35">
          <mxGeometry relative="1" as="geometry" />
        </mxCell>
        <mxCell id="Uv3hkF370l_UMBoWYebT-36" value="&lt;font size=&quot;1&quot; style=&quot;&quot;&gt;&lt;b style=&quot;font-size: 23px;&quot;&gt;Master&lt;/b&gt;&lt;/font&gt;" style="rounded=1;whiteSpace=wrap;html=1;" vertex="1" parent="1">
          <mxGeometry x="1305" y="350" width="120" height="60" as="geometry" />
        </mxCell>
        <mxCell id="Uv3hkF370l_UMBoWYebT-38" style="edgeStyle=orthogonalEdgeStyle;rounded=0;orthogonalLoop=1;jettySize=auto;html=1;exitX=0.5;exitY=1;exitDx=0;exitDy=0;entryX=0.5;entryY=0;entryDx=0;entryDy=0;startArrow=classic;startFill=1;" edge="1" parent="1" source="Uv3hkF370l_UMBoWYebT-37" target="Uv3hkF370l_UMBoWYebT-36">
          <mxGeometry relative="1" as="geometry" />
        </mxCell>
        <mxCell id="Uv3hkF370l_UMBoWYebT-37" value="&lt;font size=&quot;1&quot; style=&quot;&quot;&gt;&lt;b style=&quot;font-size: 23px;&quot;&gt;Driver&lt;/b&gt;&lt;/font&gt;" style="rounded=1;whiteSpace=wrap;html=1;" vertex="1" parent="1">
          <mxGeometry x="1305" y="200" width="120" height="60" as="geometry" />
        </mxCell>
      </root>
    </mxGraphModel>
  </diagram>
</mxfile>
